<svg xmlns="http://www.w3.org/2000/svg" width="100" height="100" fill-rule="evenodd" clip-rule="evenodd" image-rendering="optimizeQuality" shape-rendering="geometricPrecision" text-rendering="geometricPrecision" viewBox="0 0 201 201" id="phone">
  <rect width="201" height="201" fill="#2dc100" rx="19" ry="19"></rect>
  <path fill="#fefefe" d="M107 34c37 5 54 23 59 60 0 4 0 8 4 8s4-3 4-6v-2c1-35-30-67-66-68-3 0-9-2-9 4 0 4 5 3 8 4z"></path>
  <path fill="#fefefe" d="M114 44c-4-1-8-2-9 2-1 6 4 5 8 6 23 5 31 13 35 36v3c0 2 1 5 5 4 2 0 3-1 3-3v-4c0-22-19-42-42-44z"></path>
  <path fill="#fefefe" d="M116 61c-2 0-5 1-5 3-2 4 1 5 4 5 9 2 14 7 15 16 0 2 1 3 1 4 1 0 2 1 4 1l1-1c2-1 2-3 2-5 0-11-12-23-22-23zm48 73c-5-4-10-7-14-10-10-7-19-7-27 3-4 6-9 7-15 4-17-7-30-19-37-35-1-3-2-5-2-8-1-4 1-8 6-11 4-3 8-6 8-12 0-8-20-34-27-37-3-1-6-1-10 0-18 6-25 21-18 38 4 9 9 18 14 26 22 37 54 64 96 81 3 2 6 2 7 3 12 0 26-11 30-22 3-11-5-15-11-20z"></path>
</svg>
