<svg xmlns="http://www.w3.org/2000/svg" viewBox="0 0 520.48 520.48" id="telegram">
  <rect width="520.48" height="520.48" fill="#00b0f2" rx="49.82" ry="49.82"></rect>
  <path fill="#fefffc" d="m101.62,251.36c.72-.37,1.45-.71,2.17-1.04,12.36-5.73,24.88-11.09,37.41-16.45.68,0,1.81-.78,2.45-1.05.97-.41,1.93-.83,2.9-1.24,1.86-.79,3.71-1.59,5.57-2.38,3.71-1.59,7.42-3.18,11.14-4.76,7.42-3.18,14.85-6.35,22.27-9.53,14.85-6.35,29.7-12.7,44.55-19.06,14.85-6.35,29.7-12.7,44.55-19.06,14.85-6.35,29.7-12.7,44.55-19.06,14.85-6.35,29.7-12.7,44.55-19.06,3.31-1.41,6.88-3.53,10.41-4.16,2.97-.52,5.87-1.56,8.85-2.12,5.68-1.08,11.93-1.52,17.36.83,1.88.81,3.6,1.97,5.06,3.41,6.89,6.83,5.92,18.02,4.47,27.61-10.16,66.86-20.32,133.71-30.48,200.57-1.39,9.17-3.28,19.23-10.52,25.03-6.12,4.9-14.85,5.46-22.41,3.37-7.56-2.09-14.24-6.49-20.78-10.82-27.16-17.98-54.31-35.96-81.47-53.94-6.45-4.27-13.64-9.85-13.57-17.59.04-4.67,2.83-8.82,5.67-12.52,23.59-30.77,57.65-51.93,82.97-81.29,3.57-4.13,6.39-11.62,1.48-14-2.91-1.42-6.27.5-8.93,2.35-33.47,23.26-66.95,46.52-100.42,69.77-10.92,7.59-22.37,15.39-35.54,17.26-11.77,1.67-23.63-1.61-35.03-4.96-9.55-2.81-19.09-5.69-28.59-8.65-5.05-1.57-10.26-3.26-14.17-6.82-3.91-3.56-6.14-9.54-3.79-14.27,1.47-2.97,4.34-4.85,7.35-6.38Z"></path>
</svg>
