<?xml version="1.0" encoding="utf-8"?>
<!-- Generator: Adobe Illustrator 24.0.1, SVG Export Plug-In . SVG Version: 6.00 Build 0)  -->
<svg version="1.1" id="Layer_1" xmlns="http://www.w3.org/2000/svg" xmlns:xlink="http://www.w3.org/1999/xlink" x="0px" y="0px"
	 viewBox="0 0 1080 1080" style="enable-background:new 0 0 1080 1080;" xml:space="preserve">
<style type="text/css">
	.st0{fill:#AB2931;}
	.st1{fill:#606060;}
	.st2{fill:#2B6DAA;}
	.st3{fill:#8E8E8E;}
</style>
<polygon class="st0" points="540,134.7 582,62 498,62 "/>
<polygon class="st1" points="471.9,112.5 479.4,92.9 458.6,96.2 "/>
<polygon class="st1" points="405.4,128.1 409.8,107.5 389.8,114 "/>
<polygon class="st1" points="342.2,153.8 343.3,132.8 324.6,142.4 "/>
<polygon class="st1" points="284.3,189 282.1,168.1 265.1,180.5 "/>
<polygon points="241,241 231.2,204.5 204.5,231.2 "/>
<polygon class="st1" points="189,284.3 180.5,265.1 168.1,282.1 "/>
<polygon class="st1" points="153.8,342.2 142.4,324.6 132.8,343.3 "/>
<polygon class="st1" points="128.1,405.4 114,389.8 107.5,409.8 "/>
<polygon class="st1" points="112.5,471.9 96.2,458.6 92.9,479.4 "/>
<polygon points="122.6,540 74.1,512 74.1,568 "/>
<polygon class="st1" points="112.5,608.1 92.9,600.6 96.2,621.4 "/>
<polygon class="st1" points="128.1,674.6 107.5,670.2 114,690.2 "/>
<polygon class="st1" points="153.8,737.8 132.8,736.7 142.4,755.4 "/>
<polygon class="st1" points="189,795.7 168.1,797.9 180.5,814.9 "/>
<polygon points="241,839 204.5,848.8 231.2,875.5 "/>
<polygon class="st1" points="284.3,891 265.1,899.5 282.1,911.9 "/>
<polygon class="st1" points="342.2,926.2 324.6,937.6 343.3,947.2 "/>
<polygon class="st1" points="405.4,951.9 389.8,966 409.8,972.5 "/>
<polygon class="st1" points="471.9,967.5 458.6,983.8 479.4,987.1 "/>
<polygon class="st2" points="540,945.3 498,1018 582,1018 "/>
<polygon class="st1" points="608.1,967.5 600.6,987.1 621.4,983.8 "/>
<polygon class="st1" points="674.6,951.9 670.2,972.5 690.2,966 "/>
<polygon class="st1" points="737.8,926.2 736.7,947.2 755.4,937.6 "/>
<polygon class="st1" points="795.7,891 797.9,911.9 814.9,899.5 "/>
<polygon points="839,839 848.8,875.5 875.5,848.8 "/>
<polygon class="st1" points="891,795.7 899.5,814.9 911.9,797.9 "/>
<polygon class="st1" points="926.2,737.8 937.6,755.4 947.2,736.7 "/>
<polygon class="st1" points="951.9,674.6 966,690.2 972.5,670.2 "/>
<polygon class="st1" points="967.5,608.1 983.8,621.4 987.1,600.6 "/>
<polygon points="957.4,540 1005.9,568 1005.9,512 "/>
<polygon class="st1" points="967.5,471.9 987.1,479.4 983.8,458.6 "/>
<polygon class="st1" points="951.9,405.4 972.5,409.8 966,389.8 "/>
<polygon class="st1" points="926.2,342.2 947.2,343.3 937.6,324.6 "/>
<polygon class="st1" points="891,284.3 911.9,282.1 899.5,265.1 "/>
<polygon points="839,241 875.5,231.2 848.8,204.5 "/>
<polygon class="st1" points="795.7,189 814.9,180.5 797.9,168.1 "/>
<polygon class="st1" points="737.8,153.8 755.4,142.4 736.7,132.8 "/>
<polygon class="st1" points="674.6,128.1 690.2,114 670.2,107.5 "/>
<polygon class="st1" points="608.1,112.5 621.4,96.2 600.6,92.9 "/>
<g>
	<path class="st0" d="M525.1,47.3V15.8h7.3l17.3,21h-3.5v-21h8.7v31.5h-7.3l-17.4-21h3.5v21H525.1z"/>
</g>
<g>
	<path class="st3" d="M199.1,226.6L187.5,215l0.7-0.7l18.9,2.3l-0.4,0.4l-10.6-10.6l0.8-0.8l11.6,11.6l-0.7,0.7l-18.9-2.3l0.4-0.4
		l10.6,10.6L199.1,226.6z"/>
	<path class="st3" d="M215,210.7l-15.6-7.7l0.9-0.9l14.9,7.4l-0.4,0.4l-7.2-15l0.8-0.8l14.9,7.3l-0.4,0.4l-7.3-14.9l0.8-0.8
		l7.7,15.6l-0.9,0.9l-14.5-7l0.2-0.2l7,14.5L215,210.7z"/>
</g>
<g>
	<path d="M57.3,552.2l-31.5,10.7v-2.4l30.1-10.2v1.2L25.8,541v-2.2l30.1-10.4v1.2l-30.1-10.3v-2.3l31.5,10.7v2.4l-29.1,10.1v-0.6
		l29.1,10.1V552.2z"/>
</g>
<g>
	<path class="st3" d="M222,876.1c0.9,0.9,1.5,1.8,2,2.9c0.5,1.1,0.7,2,0.6,2.9l-1,0.2c0-0.8-0.2-1.7-0.6-2.7c-0.4-1-1-1.8-1.8-2.6
		s-1.5-1.3-2.2-1.6c-0.7-0.3-1.3-0.4-1.9-0.3c-0.6,0.1-1.1,0.4-1.5,0.8c-0.5,0.5-0.8,1-0.8,1.6c0,0.6,0.1,1.2,0.3,1.8
		c0.3,0.6,0.6,1.2,1,1.9c0.4,0.6,0.8,1.3,1.2,1.9c0.4,0.7,0.7,1.3,0.9,2c0.2,0.7,0.3,1.3,0.1,1.9c-0.1,0.6-0.5,1.3-1.1,1.9
		c-0.6,0.6-1.2,0.9-2,1.1c-0.8,0.2-1.6,0.1-2.5-0.2c-0.9-0.3-1.8-1-2.8-1.9c-0.6-0.6-1.2-1.4-1.6-2.2c-0.4-0.8-0.7-1.6-0.8-2.4
		l1-0.4c0.2,0.8,0.4,1.6,0.8,2.3c0.4,0.7,0.9,1.3,1.4,1.9c0.7,0.7,1.5,1.3,2.2,1.5c0.7,0.3,1.3,0.4,1.9,0.2c0.6-0.1,1.1-0.4,1.5-0.8
		c0.5-0.5,0.8-1,0.8-1.6c0-0.6-0.1-1.1-0.3-1.8c-0.3-0.6-0.6-1.2-1-1.9c-0.4-0.6-0.8-1.3-1.2-1.9c-0.4-0.6-0.7-1.3-0.9-2
		s-0.3-1.3-0.2-1.9c0.1-0.6,0.5-1.3,1.1-1.9c0.5-0.5,1.2-0.9,2-1.1c0.8-0.2,1.6-0.1,2.5,0.2S221.1,875.2,222,876.1z"/>
	<path class="st3" d="M212.3,866.6l-7.7,15.6l-0.9-0.9l7.4-14.9l0.4,0.4l-15,7.2l-0.8-0.8l7.3-14.9l0.4,0.4l-14.9,7.3l-0.8-0.8
		l15.6-7.7l0.9,0.9l-7,14.5l-0.2-0.2l14.5-7L212.3,866.6z"/>
</g>
<g>
	<path class="st2" d="M539.9,1032.5c2.3,0,4.6,0.4,6.6,1.2c2.1,0.8,3.7,1.8,4.8,3.1l-1,1.7c-1.1-1.1-2.6-2-4.4-2.8
		c-1.9-0.8-3.9-1.1-6-1.1c-2.1,0-3.8,0.3-5.2,0.8c-1.3,0.6-2.3,1.3-3,2.2c-0.6,0.9-1,2-1,3.1c0,1.3,0.4,2.4,1.1,3.2
		c0.7,0.8,1.7,1.5,2.8,1.9c1.2,0.5,2.4,0.9,3.8,1.2c1.4,0.3,2.8,0.7,4.2,1.1s2.7,0.9,3.9,1.5c1.2,0.6,2.1,1.4,2.8,2.5
		c0.7,1,1.1,2.4,1.1,4c0,1.5-0.4,2.9-1.2,4.1c-0.8,1.3-2,2.3-3.6,3.1c-1.7,0.8-3.8,1.2-6.3,1.2c-1.7,0-3.5-0.3-5.2-0.8
		c-1.7-0.5-3.1-1.2-4.3-2.1l0.9-1.8c1.3,0.9,2.7,1.6,4.3,2c1.5,0.4,3,0.7,4.4,0.7c2,0,3.7-0.3,5-0.9c1.3-0.6,2.3-1.3,2.9-2.3
		c0.6-0.9,0.9-2,0.9-3.2c0-1.4-0.4-2.4-1.1-3.2c-0.7-0.8-1.6-1.5-2.8-1.9s-2.5-0.9-3.9-1.2c-1.4-0.3-2.8-0.7-4.2-1.1
		c-1.4-0.4-2.7-0.9-3.8-1.5c-1.2-0.6-2.1-1.4-2.8-2.4c-0.7-1-1.1-2.3-1.1-4c0-1.5,0.4-2.8,1.2-4.1s2-2.3,3.7-3.1
		C535.2,1032.9,537.3,1032.5,539.9,1032.5z"/>
</g>
<g>
	<path class="st3" d="M872.6,861.5c0.9-0.9,1.8-1.5,2.9-2c1.1-0.5,2-0.7,2.9-0.6l0.3,1c-0.8,0-1.7,0.2-2.7,0.6s-1.8,1-2.6,1.8
		c-0.8,0.8-1.3,1.5-1.6,2.2c-0.3,0.7-0.4,1.3-0.3,1.9c0.1,0.6,0.4,1.1,0.8,1.5c0.5,0.5,1,0.8,1.6,0.8c0.6,0,1.2-0.1,1.8-0.3
		c0.6-0.3,1.2-0.6,1.9-1s1.3-0.8,1.9-1.2c0.7-0.4,1.3-0.7,2-0.9c0.7-0.2,1.3-0.3,1.9-0.1c0.6,0.1,1.3,0.5,1.9,1.1
		c0.6,0.6,0.9,1.2,1.1,2s0.1,1.6-0.2,2.5s-1,1.8-1.9,2.8c-0.6,0.6-1.4,1.2-2.2,1.6c-0.8,0.4-1.6,0.7-2.4,0.8l-0.4-1
		c0.8-0.2,1.6-0.4,2.3-0.8c0.7-0.4,1.3-0.9,1.9-1.4c0.7-0.7,1.3-1.5,1.5-2.2c0.3-0.7,0.4-1.3,0.2-1.9s-0.4-1.1-0.8-1.5
		c-0.5-0.5-1-0.8-1.6-0.8c-0.6,0-1.1,0.1-1.8,0.3c-0.6,0.3-1.2,0.6-1.9,1c-0.6,0.4-1.3,0.8-1.9,1.2c-0.6,0.4-1.3,0.7-2,0.9
		c-0.7,0.2-1.3,0.3-1.9,0.1s-1.3-0.5-1.9-1.1c-0.5-0.5-0.9-1.2-1.1-2s-0.1-1.6,0.2-2.5C871,863.4,871.6,862.5,872.6,861.5z"/>
	<path class="st3" d="M865.5,870.3l-7.2,7.2l-0.8-0.8l8-8l11.6,11.6l-7.8,7.8l-0.8-0.8l6.9-6.9L865.5,870.3z M871.1,875.7l-6.3,6.3
		l-0.7-0.7l6.3-6.3L871.1,875.7z"/>
</g>
<g>
	<path d="M1024.8,532.7v19.4h-2.1v-21.7h31.5v21.1h-2.1v-18.8H1024.8z M1039.7,532.5v17.1h-2v-17.1H1039.7z"/>
</g>
<g>
	<path class="st3" d="M856.9,202.6l11.6-11.6l0.7,0.7l-2.3,18.9l-0.4-0.4l10.6-10.6l0.8,0.8L866.3,212l-0.7-0.7l2.3-18.9l0.4,0.4
		l-10.6,10.6L856.9,202.6z"/>
	<path class="st3" d="M872,216.2l7.2,7.2l-0.8,0.8l-8-8l11.6-11.6l7.8,7.8L889,213l-6.9-6.9L872,216.2z M877.4,210.6l6.3,6.3
		l-0.7,0.7l-6.3-6.3L877.4,210.6z"/>
</g>
</svg>
